<svg width="14" height="10" viewBox="0 0 14 10" fill="none" xmlns="http://www.w3.org/2000/svg">
<path fill-rule="evenodd" clip-rule="evenodd" d="M9.16221 1.22566C8.93792 0.936098 8.94623 0.48677 9.18713 0.217174C9.44464 -0.072391 9.83505 -0.0723909 10.0926 0.217174L13.7226 4.38093C13.7559 4.41088 13.7891 4.44084 13.814 4.4708L13.8306 4.49076C14.0632 4.78033 14.0549 5.24962 13.814 5.5292C13.7958 5.55831 13.7733 5.57681 13.7495 5.59629C13.7407 5.60355 13.7317 5.61094 13.7226 5.61907L10.0926 9.78283C9.83505 10.0724 9.44464 10.0724 9.18712 9.78283L9.16221 9.75287C8.93792 9.46331 8.94623 9.01398 9.18712 8.74438L11.8485 5.69188L0.750004 5.69188C0.335791 5.69188 4.22068e-06 5.35609 4.25689e-06 4.94188C4.2931e-06 4.52766 0.335791 4.19188 0.750005 4.19188L11.7471 4.19188L9.18713 1.25562L9.16221 1.22566Z" fill="#323232"/>
</svg>
