<svg width="24" height="24" viewBox="0 0 24 24" fill="none" xmlns="http://www.w3.org/2000/svg">
<path d="M12.7889 24C10.5794 24 8.33218 23.9937 6.15418 23.9937C5.32326 23.9937 4.49234 23.9874 3.66143 23.9874C1.64708 23.9811 0.00413478 22.3392 0.00413478 20.3261C-0.00216004 13.4689 -0.00216004 7.86999 0.0104296 2.69253C0.0104296 1.59161 0.5329 0.780079 1.55266 0.270511C1.72262 0.188729 1.91147 0.13211 2.10031 0.0754915C2.18214 0.0503277 2.27027 0.0251638 2.3521 0H15.6153C15.6216 0 15.6279 0.00629096 15.6342 0.00629096C15.6594 0.0188729 15.6908 0.0314548 15.7223 0.0377457C16.8743 0.276802 17.6045 0.975098 17.894 2.09489C17.9381 2.27733 17.957 2.46605 17.9759 2.66737C17.9821 2.76173 17.9947 2.85609 18.001 2.95046L18.0073 3.00708H18.3284C18.6305 3.00708 18.9264 3.00708 19.2285 3.00708C19.5307 3.00708 19.8265 3.00708 20.1287 3.00708C20.5819 3.00708 20.9596 3.00708 21.3058 3.01337C22.1871 3.02595 22.911 3.39083 23.4649 4.1017C23.7671 4.49174 23.8993 4.95098 24 5.3536V20.7035C23.9937 20.7161 23.9937 20.735 23.9874 20.7476C23.9748 20.7916 23.9622 20.8294 23.9559 20.8797C23.6601 22.66 22.1997 23.9685 20.4812 23.9811C18.1773 23.9937 15.7349 24 12.7889 24ZM17.9696 20.1562C17.9696 20.238 17.9696 20.3198 17.9759 20.4016C18.0262 21.6157 19.0712 22.6097 20.2986 22.6097C20.5001 22.6097 20.7015 22.5845 20.8967 22.5279C21.9605 22.2322 22.6214 21.3389 22.6214 20.1877C22.6214 16.5075 22.6214 12.8273 22.6214 9.14705V5.80026C22.6214 5.74993 22.6214 5.69332 22.6214 5.64299C22.5774 4.97615 22.0297 4.42254 21.4065 4.40996C21.0037 4.40367 20.563 4.39738 20.028 4.39738C19.7006 4.39738 19.3733 4.39738 19.0397 4.39738C18.7061 4.39738 18.3661 4.39738 18.0262 4.39738H17.9633L17.9696 20.1562ZM2.8431 1.3903C1.91147 1.3903 1.3827 1.92503 1.3827 2.85609C1.3827 8.61861 1.3827 14.3748 1.3827 20.1374C1.3827 21.6409 2.3584 22.6097 3.86916 22.6097H17.4156L17.3401 22.509C16.6351 21.5969 16.5784 20.5651 16.5847 19.5837C16.5973 15.3751 16.591 11.1035 16.591 6.96409C16.591 5.59266 16.591 4.21494 16.591 2.84351C16.591 1.93132 16.0496 1.3903 15.1432 1.3903H9.12533H2.8431ZM8.01115 19.9738C6.6137 19.9738 5.22254 19.9738 3.82509 19.9738C3.52924 19.9738 3.28374 19.8605 3.13896 19.6718C3.01936 19.5083 2.98159 19.3069 3.04453 19.0993C3.13896 18.7848 3.38445 18.6024 3.71808 18.6024C4.07689 18.6024 4.44198 18.5961 4.80079 18.5961C5.00852 18.5961 6.07234 18.5961 6.07234 18.5961H11.4418C12.342 18.5961 13.2484 18.5961 14.1486 18.5961C14.35 18.5961 14.5515 18.6149 14.7151 18.7722C14.9229 18.9735 14.9921 19.2 14.9229 19.4579C14.8473 19.7284 14.6711 19.892 14.4067 19.9549C14.3312 19.9738 14.243 19.9801 14.1423 19.9801C12.1028 19.9738 10.057 19.9738 8.01115 19.9738ZM8.09928 16.2118C6.67665 16.2118 5.24772 16.2118 3.82509 16.2118C3.53553 16.2118 3.28374 16.0986 3.13896 15.9098C3.01936 15.7463 2.98159 15.545 3.04453 15.3374C3.13896 15.0228 3.38445 14.8404 3.71808 14.8404C4.09577 14.8404 4.47346 14.8404 4.85115 14.8404H6.16677H11.4418C12.342 14.8404 13.2484 14.8404 14.1486 14.8404C14.35 14.8404 14.5515 14.8592 14.7151 15.0165C14.9229 15.2178 14.9921 15.4443 14.9229 15.7022C14.8473 15.9727 14.6711 16.1363 14.4067 16.1929C14.3312 16.2118 14.243 16.2181 14.1423 16.2181C12.128 16.2055 10.1136 16.2118 8.09928 16.2118ZM8.11187 12.4435C6.68294 12.4435 5.25402 12.4435 3.82509 12.4435C3.52924 12.4435 3.27744 12.3303 3.13896 12.1353C3.01936 11.9654 2.98788 11.7578 3.05712 11.5439C3.15784 11.2419 3.39704 11.0721 3.73067 11.0658C4.15872 11.0658 4.58047 11.0658 5.00852 11.0658H6.46262H11.4733C12.3672 11.0658 13.2673 11.0658 14.1612 11.0658C14.3626 11.0658 14.5641 11.0847 14.7277 11.2482C14.9292 11.4433 14.9984 11.6697 14.9355 11.9151C14.8662 12.1982 14.6837 12.368 14.4067 12.4246C14.3312 12.4435 14.243 12.4498 14.1423 12.4498C12.128 12.4435 10.1199 12.4435 8.11187 12.4435ZM5.97163 8.92058C5.24143 8.92058 4.51123 8.92058 3.78103 8.92058C3.30262 8.92058 3.01935 8.63748 3.01935 8.16566C3.01935 6.55518 3.01935 5.11455 3.01935 3.76199C3.01935 3.29646 3.30262 3.01966 3.76844 3.01966C4.0643 3.01966 4.36015 3.01966 4.65601 3.01966H5.98422H7.28724C7.57681 3.01966 7.86007 3.01966 8.14964 3.01966C8.64693 3.01966 8.9239 3.29017 8.9239 3.78716C8.9239 5.38506 8.9239 6.81311 8.9239 8.16566C8.9239 8.64377 8.64693 8.92058 8.16222 8.92058C7.43202 8.92058 6.70183 8.92058 5.97163 8.92058ZM4.41051 7.53027H7.52015V4.42254H4.41051V7.53027ZM12.2664 8.4173C12.1091 8.4173 11.958 8.4173 11.8006 8.4173C11.3663 8.41101 11.0641 8.1405 11.0641 7.74417C11.0641 7.54915 11.1271 7.37929 11.253 7.25347C11.3852 7.12136 11.5803 7.04587 11.8006 7.03958C12.2161 7.03329 12.6253 7.03329 13.0155 7.03329C13.4247 7.03329 13.8276 7.03329 14.2178 7.03958C14.6396 7.04587 14.948 7.33526 14.948 7.73159C14.948 8.12792 14.6459 8.41101 14.2178 8.4173H14.1738H12.9904C12.8708 8.4173 12.3861 8.4173 12.2664 8.4173ZM12.2539 5.40393C12.0965 5.40393 11.9391 5.40393 11.7817 5.40393C11.3663 5.39764 11.0704 5.12084 11.0641 4.7308C11.0641 4.53578 11.1271 4.35963 11.253 4.23381C11.3789 4.1017 11.5677 4.02621 11.7755 4.02621C12.1909 4.01992 12.6064 4.01992 13.0092 4.01992C13.4247 4.01992 13.8402 4.01992 14.243 4.02621C14.4508 4.02621 14.6333 4.10799 14.7655 4.2401C14.8914 4.37221 14.9543 4.54836 14.9543 4.73709C14.9417 5.12713 14.6459 5.39764 14.2241 5.40393C14.0668 5.40393 13.9094 5.40393 13.752 5.40393C13.6261 5.40393 13.5002 5.40393 13.3743 5.40393C13.2484 5.40393 13.1288 5.40393 13.0029 5.40393C12.877 5.40393 12.7512 5.40393 12.6253 5.40393C12.4994 5.40393 12.3798 5.40393 12.2539 5.40393Z" fill="#323232"/>
</svg>
