<svg width="40" height="42" viewBox="0 0 40 42" fill="none" xmlns="http://www.w3.org/2000/svg">
<path d="M39.2875 16.8357C39.0851 16.6009 38.8537 16.3954 38.6368 16.1752C37.5523 15.1037 36.0919 15.1037 35.0074 16.1605C34.2266 16.9238 33.4458 17.687 32.6939 18.4796C32.2601 18.92 31.8696 19.3897 31.4648 19.8447C31.4069 19.8007 31.3491 19.7566 31.2913 19.7126C31.2913 19.5071 31.2913 19.3163 31.2913 19.1108C31.2913 15.133 31.3057 11.1406 31.2913 7.16288C31.2913 4.9465 29.9754 3.30256 27.9511 2.92093C27.6474 2.86222 27.3148 2.84754 26.9678 2.81818C26.9678 2.48059 26.9823 2.18703 26.9678 1.90814C26.91 0.807292 26.1002 0 25.088 0C24.0614 0 23.2661 0.792614 23.2083 1.86411C23.1938 2.18703 23.2083 2.50994 23.2083 2.87689H20.6778C20.6778 2.50994 20.6923 2.21638 20.6778 1.92282C20.6344 0.851326 19.8102 0.0293561 18.8125 0.0293561C17.8148 0.0293561 16.9906 0.851326 16.9327 1.92282C16.9183 2.23106 16.9327 2.5393 16.9327 2.84754H14.3733C14.3733 2.45123 14.4023 2.08428 14.3733 1.71733C14.2866 0.777936 13.4479 0.0293561 12.5225 0.0293561C11.626 0.0293561 10.8018 0.74858 10.6716 1.64394C10.6138 2.0696 10.7006 2.70076 10.4692 2.86222C10.1511 3.08239 9.60162 2.93561 9.15337 2.93561C9.13891 2.93561 9.12445 2.93561 9.09553 2.93561C8.14119 2.93561 8.14119 2.93561 8.09781 1.96686C8.05443 0.880682 7.25914 0.0880682 6.21804 0.0880682C5.20585 0.0880682 4.41057 0.880682 4.36719 1.96686C4.35273 2.28977 4.36719 2.61269 4.36719 2.93561C1.77889 2.96496 -0.0285774 4.82907 0.000342086 7.77936C0.0871006 17.4815 0.0292616 27.1984 0.0292616 36.9006C0.0292616 39.6307 1.70659 41.3333 4.38165 41.3333C11.8284 41.3333 19.2897 41.3333 26.7364 41.3333C29.4404 41.3333 31.1177 39.616 31.1177 36.8565C31.1177 34.2438 31.1322 31.6458 31.1033 29.0331C31.1033 28.6515 31.2045 28.3873 31.4792 28.1231C34.0675 25.5104 36.6414 22.883 39.2152 20.2704C40.2419 19.2576 40.2563 17.8925 39.2875 16.8357ZM24.7699 2.02557C24.7699 1.86411 25.0013 1.71733 25.1169 1.57055C25.2182 1.71733 25.4061 1.86411 25.4206 2.01089C25.464 2.5393 25.4351 3.06771 25.4351 3.6108C25.4351 4.12453 25.464 4.63826 25.4206 5.15199C25.4061 5.31345 25.2326 5.46023 25.1314 5.60701C25.0013 5.46023 24.7699 5.31345 24.7699 5.16667C24.741 4.12453 24.741 3.08239 24.7699 2.02557ZM18.5233 2.04025C18.5233 1.87879 18.7402 1.73201 18.8703 1.57055C18.986 1.73201 19.1884 1.87879 19.2029 2.04025C19.2463 2.55398 19.2174 3.06771 19.2174 3.56676C19.2174 4.08049 19.2463 4.59422 19.2029 5.09328C19.1884 5.26941 19.0005 5.41619 18.8992 5.59233C18.7691 5.43087 18.5378 5.26941 18.5378 5.09328C18.4944 4.09517 18.4944 3.06771 18.5233 2.04025ZM12.3056 2.09896C12.3201 1.92282 12.5225 1.76136 12.6382 1.58523C12.7394 1.74669 12.9418 1.90814 12.9418 2.0696C12.9707 3.08239 12.9707 4.08049 12.9418 5.09328C12.9418 5.26941 12.7249 5.43087 12.5948 5.60701C12.4936 5.43087 12.3056 5.25473 12.2911 5.06392C12.2622 4.55019 12.2911 4.03646 12.2911 3.52273C12.2911 3.05303 12.2622 2.56866 12.3056 2.09896ZM6.11682 2.05492C6.13128 1.89347 6.33372 1.74669 6.44939 1.58523C6.56507 1.74669 6.76751 1.89347 6.76751 2.0696C6.79643 3.09706 6.79643 4.12453 6.76751 5.15199C6.76751 5.31345 6.55061 5.46023 6.43493 5.62169C6.31926 5.46023 6.13128 5.31345 6.11682 5.15199C6.07344 4.63826 6.10236 4.12453 6.10236 3.6108C6.10236 3.08239 6.07344 2.55398 6.11682 2.05492ZM29.7151 37.473C29.6862 38.6032 28.6017 39.5573 27.4739 39.6454C27.2714 39.66 27.0835 39.66 26.881 39.66C19.4632 39.66 12.0453 39.6307 4.64192 39.6747C2.86337 39.6894 1.69213 38.4564 1.69213 36.6657C1.73551 26.8608 1.70659 17.0705 1.70659 7.26562C1.70659 5.8125 2.3862 4.81439 3.61528 4.4768C3.89002 4.40341 4.17921 4.40341 4.52625 4.35938C4.52625 4.68229 4.52625 4.93182 4.52625 5.18134C4.56963 6.2822 5.32153 7.08949 6.34818 7.10417C7.37482 7.13352 8.1701 6.35559 8.2424 5.25473C8.25686 4.99053 8.2424 4.71165 8.2424 4.41809H10.7439C10.7439 5.25473 10.6572 6.12074 11.4091 6.64915C11.7561 6.89867 12.2333 7.08949 12.6526 7.08949C13.8239 7.11884 14.301 6.39962 14.5179 4.38873H16.9906C16.9906 4.68229 16.9761 4.93182 16.9906 5.18134C17.0484 6.32623 17.8292 7.11884 18.8703 7.11884C19.9259 7.10417 20.6923 6.29687 20.7212 5.15199C20.7212 4.91714 20.7212 4.68229 20.7212 4.41809H23.2227C23.2083 5.25473 23.1504 6.10606 23.8879 6.63447C24.2349 6.884 24.6976 7.07481 25.1314 7.08949C26.2882 7.11884 26.7798 6.39962 26.9967 4.4768C28.1824 4.16856 29.5561 5.2107 29.7296 6.5464C29.7585 6.81061 29.7585 7.08949 29.7585 7.36837C29.7585 11.8598 29.7585 16.366 29.773 20.8575C29.773 21.2538 29.6718 21.5327 29.3826 21.8262C27.5317 23.6757 25.6953 25.5544 23.8734 27.4332C23.5987 27.7121 23.3818 28.1231 23.2806 28.5047C22.9769 29.679 22.7311 30.8532 22.4853 32.0421C22.2973 32.9228 22.6877 33.3191 23.5408 33.143C24.7699 32.8788 26.0134 32.5999 27.2281 32.2917C27.5028 32.2183 27.7775 32.0275 27.9944 31.822C28.5439 31.2789 29.0645 30.7064 29.585 30.1634C29.6718 30.2367 29.7007 30.2367 29.7007 30.2514C29.7296 32.6733 29.7874 35.0805 29.7151 37.473ZM24.5241 29.8845C24.9579 30.2955 25.3338 30.6477 25.7676 31.0881C25.2182 31.2055 24.741 31.3229 24.1915 31.4403C24.3072 30.8679 24.4084 30.3835 24.5241 29.8845ZM27.2425 30.2808C26.6208 29.6496 25.9411 28.9598 25.2471 28.2552C28.0812 25.3783 30.8864 22.5161 33.6916 19.6686C34.3567 20.3584 35.0219 21.063 35.6581 21.7088C32.8818 24.5417 30.0622 27.4186 27.2425 30.2808ZM38.1452 19.3897C37.7548 19.8153 37.3499 20.241 37.0029 20.608C36.2799 19.8594 35.5858 19.1548 34.8484 18.4062C35.2243 18.0246 35.687 17.5696 36.1497 17.1146C36.1787 17.0852 36.2076 17.0705 36.2365 17.0559C36.8438 16.6889 37.4511 16.9531 38.2464 17.9512C38.6224 18.4209 38.5934 18.9053 38.1452 19.3897ZM6.42047 12.8873C6.50723 12.8873 6.59399 12.8873 6.69521 12.8873C12.7394 12.8873 18.7836 12.8873 24.8133 12.8873C24.9868 12.8873 25.1748 12.902 25.3483 12.8726C25.8544 12.7846 26.1436 12.2415 25.9267 11.7865C25.7387 11.3902 25.3917 11.3461 25.0157 11.3461C21.9503 11.3461 18.8848 11.3461 15.8193 11.3461C13.8383 11.3461 11.8573 11.3461 9.8619 11.3461C8.70512 11.3461 7.54834 11.3461 6.40601 11.3461C5.84208 11.3461 5.48059 11.6544 5.48059 12.1241C5.48059 12.5937 5.84208 12.8726 6.42047 12.8873ZM6.65183 19.4924C12.7105 19.4924 18.7691 19.4924 24.8277 19.4924C25.0013 19.4924 25.1892 19.5071 25.3628 19.4777C25.7676 19.3897 25.999 19.1108 25.9845 18.6851C25.9701 18.2595 25.7243 18.0099 25.3049 17.9659C25.1459 17.9512 24.9868 17.9512 24.8133 17.9512C21.7767 17.9512 18.7546 17.9512 15.7181 17.9512C12.6815 17.9512 9.65946 17.9512 6.62291 17.9512C5.82762 17.9512 5.43721 18.2154 5.45167 18.7585C5.49505 19.2576 5.871 19.4924 6.65183 19.4924ZM20.1428 24.5857C19.9837 24.5417 19.8247 24.5563 19.6512 24.5563C15.2988 24.5563 10.9608 24.5563 6.60845 24.5563C6.46385 24.5563 6.31926 24.5417 6.17466 24.571C5.74087 24.6444 5.48059 24.9086 5.49505 25.349C5.49505 25.7893 5.74087 26.0682 6.18912 26.1122C6.36264 26.1269 6.55061 26.1269 6.72413 26.1269C8.83525 26.1269 10.9464 26.1269 13.0575 26.1269C15.1542 26.1269 17.2364 26.1269 19.333 26.1269C19.5789 26.1269 19.8391 26.1416 20.0849 26.1122C20.5043 26.0535 20.7212 25.7893 20.7356 25.3636C20.7646 24.9527 20.5332 24.6884 20.1428 24.5857ZM17.8871 31.2202C17.7858 31.2055 17.6702 31.2202 17.5689 31.2202C13.9106 31.2202 10.2523 31.2202 6.57953 31.2202C6.40601 31.2202 6.1602 31.1908 6.05898 31.2789C5.82762 31.4697 5.53843 31.7486 5.52397 31.9981C5.52397 32.2476 5.7987 32.5412 6.0156 32.7467C6.13128 32.8494 6.39155 32.8201 6.59399 32.8201C8.41592 32.8201 10.2379 32.8201 12.0598 32.8201C13.8672 32.8201 15.6603 32.8201 17.4677 32.8201C17.6123 32.8201 17.7569 32.8348 17.9015 32.8054C18.3498 32.7467 18.639 32.4825 18.639 31.9981C18.6245 31.5284 18.3498 31.2642 17.8871 31.2202Z" fill="white"/>
</svg>
