<svg width="40" height="27" viewBox="0 0 40 27" fill="none" xmlns="http://www.w3.org/2000/svg">
<path d="M40 7.33491C39.833 8.19834 39.2904 8.83012 38.7268 9.45137C37.1302 11.2203 35.544 12.9999 33.916 14.8215C34.8552 15.5796 35.5753 16.4852 35.2309 17.7803C34.9074 18.9912 34.0725 19.7388 32.8724 20.0547C33.2168 22.0343 31.1923 23.8454 29.5121 23.3716C29.1677 24.5614 28.4894 25.467 27.2684 25.8039C25.9744 26.1514 25.0978 25.3827 24.3256 24.5719C23.9812 25.0247 23.689 25.4985 23.3133 25.8881C22.3428 26.899 20.8713 26.92 19.8278 25.9829C19.1599 25.3827 18.5129 24.7615 17.9285 24.2139C17.4589 24.6456 16.9788 25.0142 16.5823 25.467C15.1734 27.0885 13.0028 26.6357 11.9697 24.6562C11.9279 24.5719 11.8966 24.4877 11.8653 24.4035C9.89297 25.1511 8.53633 24.5614 7.71191 22.5713C6.56398 22.9609 5.59346 22.6661 4.74817 21.7921C3.882 20.8971 3.7046 19.8968 4.16377 18.8438C3.69416 18.4858 3.20368 18.1804 2.79669 17.7908C1.77399 16.8011 1.75312 15.3059 2.7132 14.2529C3.24543 13.6738 3.78808 13.1157 4.36205 12.505C4.1742 12.3365 3.98636 12.168 3.80895 12.0101C2.86974 11.1993 1.93053 10.3885 0.991312 9.57772C-0.229666 8.53529 -0.334023 7.04008 0.740855 5.82917C1.90965 4.50243 3.07845 3.1757 4.24725 1.84896C5.28039 0.690702 6.76226 0.343224 8.18152 0.953943C8.75548 1.19613 9.32944 1.45937 9.90341 1.69102C10.9679 2.13326 12.0323 2.13326 13.0863 1.68049C13.629 1.44884 14.1612 1.21718 14.7038 0.985532C16.1648 0.353754 17.605 0.374813 19.0347 1.10136C19.0451 1.11189 19.0555 1.11189 19.066 1.12242C19.5773 1.48043 20.0156 1.51201 20.6209 1.14348C21.7271 0.480109 22.9585 0.490639 24.1482 1.03818C25.0769 1.4699 25.9953 1.94373 26.9241 2.38598C27.905 2.84928 28.8651 2.80716 29.7939 2.23856C30.7435 1.6489 31.6932 1.03818 32.6428 0.44852C33.8742 -0.320144 35.3457 -0.0884915 36.2536 1.04871C37.3285 2.3965 38.3929 3.76536 39.426 5.15527C39.6869 5.51328 39.8122 5.96605 40 6.38724C40 6.70313 40 7.01902 40 7.33491ZM26.371 13.4C26.4962 13.5158 26.6005 13.6 26.6945 13.6843C28.2911 15.1795 29.8878 16.6747 31.4845 18.1594C32.288 18.9175 32.862 18.8859 33.6029 18.0436C34.0934 17.4855 34.0725 16.8326 33.5507 16.3272C30.3991 13.2736 27.1328 10.3569 23.4803 7.92457C22.6663 7.37703 21.8314 7.33491 20.9757 7.81927C20.5791 8.04039 20.2035 8.30364 19.8069 8.52476C18.4189 9.31448 16.864 8.80906 15.9144 7.2612C15.1839 6.07135 15.5387 4.7025 16.791 3.79695C17.4067 3.3547 18.0224 2.92299 18.6485 2.48074C17.7615 1.85949 16.4779 1.73314 15.4552 2.16485C14.8186 2.42809 14.1925 2.72292 13.5559 2.97564C12.1575 3.53371 10.7696 3.52318 9.38162 2.93352C8.76592 2.67028 8.17108 2.38598 7.54494 2.15432C6.78313 1.87002 6.03176 1.96479 5.4891 2.56498C4.18464 3.97595 2.92192 5.42904 1.6592 6.88213C1.24177 7.3665 1.30438 7.98775 1.78443 8.42999C2.00358 8.63005 2.23316 8.83012 2.46275 9.01965C3.4124 9.84096 4.36205 10.6517 5.343 11.5046C6.17786 10.5149 7.0649 9.56719 8.48415 9.95679C9.78862 10.3043 10.5713 11.2309 10.7904 12.6208C11.7818 12.5366 12.5019 13.042 13.1385 13.7369C13.7959 14.474 13.9107 15.3374 13.6916 16.264C15.1421 16.6642 15.7161 17.7803 16.0605 19.0649C16.1022 19.0755 16.1231 19.086 16.1544 19.086C18.1372 19.1913 19.3582 20.9497 18.7946 22.8661C18.7738 22.9504 18.7946 23.1083 18.8572 23.161C19.5043 23.7822 20.1721 24.4035 20.84 25.0037C21.1635 25.288 21.5497 25.3301 21.9358 25.1932C23.0524 24.8036 23.3029 23.5927 22.4471 22.7924C21.7271 22.1291 21.0174 21.4552 20.2869 20.7707C20.6104 20.4233 20.9026 20.0968 21.2053 19.7704C21.3305 19.8862 21.4349 19.981 21.5288 20.0652C22.9585 21.392 24.3777 22.7187 25.797 24.056C26.1518 24.3929 26.5588 24.593 27.0388 24.4351C27.5919 24.2455 27.9572 23.8243 28.1242 23.2768C28.2807 22.7714 28.0302 22.3712 27.6546 22.0238C26.1309 20.6128 24.6178 19.1913 23.0628 17.7382C23.3759 17.4012 23.6681 17.0854 23.9812 16.7484C24.1168 16.8642 24.2212 16.959 24.3256 17.0538C25.9535 18.57 27.5711 20.0863 29.199 21.6131C29.8565 22.2238 30.4722 22.1922 31.0879 21.5183C31.714 20.8339 31.714 20.2232 31.067 19.6019C30.1487 18.728 29.2199 17.8646 28.2911 17.0011C27.3624 16.1272 26.4231 15.2532 25.4735 14.3582C25.7657 14.0634 26.0579 13.7475 26.371 13.4ZM32.935 13.8949C33.0185 13.8001 33.0811 13.7159 33.1437 13.6422C34.8135 11.7784 36.4727 9.91467 38.1424 8.05092C38.779 7.34544 38.7999 6.56624 38.2155 5.80811C37.245 4.55508 36.2744 3.30205 35.3039 2.04903C34.73 1.31195 34.0412 1.17507 33.2585 1.66996C32.3193 2.25962 31.3905 2.87034 30.4409 3.43894C29.126 4.22866 27.7589 4.29184 26.371 3.639C25.4317 3.19676 24.503 2.71239 23.5638 2.27015C22.7289 1.88055 21.8627 1.91214 21.1009 2.41756C19.8278 3.25994 18.6068 4.17601 17.3545 5.0605C17.031 5.29216 16.864 5.60805 16.8745 6.00817C16.9162 7.13484 18.2102 7.86139 19.1703 7.30332C19.5773 7.07167 19.9634 6.7979 20.3809 6.57677C21.6123 5.93447 22.875 5.90288 24.0125 6.68207C26.1727 8.17728 28.3329 9.66196 30.2739 11.4415C31.1714 12.2523 32.0376 13.063 32.935 13.8949ZM12.4915 15.4743C12.4184 14.9373 12.0949 14.632 11.761 14.3266C11.2287 13.8633 10.6026 13.8528 10.1226 14.3582C8.61982 15.9271 7.12751 17.496 5.64564 19.0755C5.13429 19.6125 5.1656 20.2653 5.69782 20.7918C5.7813 20.876 5.86479 20.9603 5.94827 21.034C6.47006 21.4973 7.10664 21.4973 7.58668 21.0024C9.09986 19.4229 10.6026 17.8435 12.0845 16.243C12.2723 16.0429 12.3558 15.7376 12.4915 15.4743ZM4.99862 17.475C5.1656 17.3697 5.47867 17.2538 5.68738 17.0327C6.79357 15.906 7.87888 14.7478 8.9642 13.6C9.46511 13.0736 9.52772 12.6629 9.12073 12.0522C8.50502 11.1045 7.58668 11.0308 6.9188 11.7784C5.90653 12.9051 4.84209 13.9896 3.79852 15.0847C3.42283 15.4849 3.23499 15.9376 3.49588 16.4431C3.76721 16.9801 4.19508 17.3802 4.99862 17.475ZM14.6934 19.0965C14.6412 18.549 14.2968 18.2436 13.9629 17.9488C13.4411 17.475 12.8045 17.4855 12.3245 17.9909C11.3122 19.0439 10.3 20.1074 9.29814 21.1814C8.85984 21.6447 8.88071 22.2765 9.30857 22.7503C9.41293 22.8661 9.52772 22.9714 9.64252 23.0767C10.1539 23.54 10.8113 23.5295 11.2809 23.0346C12.2932 21.9922 13.295 20.9392 14.276 19.8652C14.4847 19.6651 14.5682 19.3492 14.6934 19.0965ZM17.6676 21.9501C17.605 21.3288 17.2084 21.0129 16.8223 20.7076C16.3735 20.3496 15.7683 20.3706 15.3613 20.7813C14.683 21.4657 14.0151 22.1712 13.3681 22.8977C12.9611 23.3505 13.0133 23.9928 13.4307 24.4351C13.5455 24.5614 13.6707 24.6772 13.7959 24.7931C14.2968 25.2142 14.923 25.2037 15.3822 24.7404C16.0292 24.0876 16.6553 23.4242 17.271 22.7398C17.4484 22.5187 17.5319 22.2133 17.6676 21.9501Z" fill="white"/>
</svg>
