<svg width="18" height="20" viewBox="0 0 18 20" fill="none" xmlns="http://www.w3.org/2000/svg">
<path d="M7.67203 0C7.92625 0.0976753 8.20002 0.160188 8.42686 0.30084C9.1856 0.765775 9.47502 1.71518 9.14258 2.53956C9.11912 2.59426 9.09565 2.64505 9.07218 2.69975C9.51413 2.87947 9.95217 3.05528 10.4137 3.24282C11.0238 2.1723 11.9429 1.48467 13.1944 1.29322C14.0196 1.1682 14.8018 1.32057 15.5332 1.72299C16.9607 2.51221 17.7077 4.14925 17.3675 5.75503C17.0468 7.27877 15.6779 8.70483 13.6129 8.71655C13.6129 8.78687 13.6129 8.85329 13.6129 8.92362C13.6129 10.5255 13.6129 12.1274 13.609 13.7253C13.609 13.8386 13.6285 13.9051 13.7498 13.9598C14.5789 14.3348 15.0091 15.1748 14.8214 16.0383C14.6415 16.8783 13.8984 17.4761 12.9989 17.4878C12.2284 17.4956 11.4618 17.4956 10.6914 17.4878C10.5388 17.4878 10.4762 17.519 10.4254 17.6831C10.046 18.9529 9.20516 19.7187 7.89496 19.9648C7.85976 19.9727 7.82456 19.9883 7.78545 20C7.55079 20 7.31613 20 7.08147 20C7.04627 19.9883 7.01107 19.9727 6.97196 19.9648C5.66176 19.7226 4.81698 18.9568 4.43761 17.687C4.39068 17.5269 4.33201 17.4878 4.17557 17.4878C3.40118 17.4956 2.6268 17.4995 1.8485 17.4878C0.948965 17.4722 0.201958 16.8588 0.0376944 16.0227C-0.134391 15.1436 0.291912 14.3192 1.12887 13.9559C1.26185 13.8972 1.25403 13.8152 1.25403 13.7136C1.25403 12.0102 1.21492 10.3028 1.26576 8.59934C1.34007 6.10666 2.53293 4.28209 4.74267 3.13342C5.07511 2.96152 5.43883 2.84821 5.79083 2.70365C5.77518 2.66068 5.75563 2.61379 5.73607 2.56691C5.36843 1.69174 5.70087 0.699355 6.5261 0.242235C6.72165 0.132838 6.94458 0.0781403 7.15578 0C7.33568 0 7.50386 0 7.67203 0ZM7.42173 16.3235C9.24036 16.3235 11.059 16.3235 12.8737 16.3235C12.9598 16.3235 13.0458 16.3235 13.1279 16.3079C13.4643 16.2493 13.6989 15.9641 13.6911 15.6359C13.6833 15.3038 13.4408 15.0381 13.1005 14.9912C12.5726 14.917 12.4396 14.7568 12.4396 14.2215C12.4396 12.3813 12.4396 10.5372 12.4396 8.69701C12.4396 8.58371 12.4513 8.47822 12.2988 8.41961C10.7696 7.7984 9.82701 6.20824 10.0187 4.59465C10.0343 4.46181 9.9991 4.38367 9.87395 4.31725C8.51682 3.59445 7.10884 3.47333 5.66958 4.0125C3.70624 4.74702 2.44689 6.58722 2.43907 8.6892C2.43125 10.5685 2.43907 12.4517 2.43516 14.3309C2.43516 14.7216 2.24352 14.9365 1.85633 14.9795C1.82504 14.9834 1.78984 14.9873 1.75855 14.9912C1.42611 15.042 1.19145 15.3038 1.17972 15.6281C1.16798 15.9523 1.39091 16.2336 1.71553 16.3001C1.80939 16.3196 1.91108 16.3196 2.00494 16.3196C3.81575 16.3235 5.61874 16.3235 7.42173 16.3235ZM16.2763 4.97754C16.2763 3.57882 15.1265 2.43016 13.7263 2.42626C12.3223 2.42235 11.1607 3.58273 11.1646 4.98535C11.1685 6.38015 12.3183 7.53272 13.7185 7.53663C15.1226 7.54054 16.2763 6.38406 16.2763 4.97754ZM5.63047 17.5073C5.77909 18.2458 6.63952 18.8513 7.49995 18.8318C8.30171 18.8123 9.14258 18.1754 9.24036 17.5073C8.03576 17.5073 6.83507 17.5073 5.63047 17.5073ZM7.44519 2.5044C7.81674 2.50049 8.11007 2.20356 8.10616 1.83239C8.10225 1.46513 7.8011 1.1682 7.43346 1.1721C7.06582 1.17601 6.7725 1.47685 6.7725 1.84802C6.7725 2.21918 7.06973 2.5083 7.44519 2.5044Z" fill="#323232"/>
</svg>
