<svg width="49" height="42" viewBox="0 0 49 42" fill="none" xmlns="http://www.w3.org/2000/svg">
<path d="M3.06807 2.99995C3.06607 3.00163 3.06419 3.00347 3.06248 3.00543V38.9944C3.06419 38.9964 3.06607 38.9982 3.06807 38.9999H45.9321C45.9341 38.9982 45.9359 38.9964 45.9375 38.9944V3.00578C45.9359 3.00387 45.934 3.00209 45.9321 3.00047L3.06807 2.99995ZM3.06248 0H45.9375C46.749 0.00235023 47.5266 0.31917 48.1004 0.881262C48.6742 1.44335 48.9976 2.20504 49 2.99995V38.9997C48.9977 39.7947 48.6743 40.5564 48.1005 41.1186C47.5267 41.6808 46.7491 41.9977 45.9375 42H3.06248C2.251 41.9977 1.47344 41.6808 0.899629 41.1187C0.325823 40.5566 0.00239921 39.795 0 39V2.99995C0.00239921 2.20504 0.325823 1.44335 0.899629 0.881262C1.47344 0.31917 2.251 0.00235023 3.06248 0ZM9.18726 10.5C9.18729 11.39 9.45674 12.26 9.96151 13C10.4663 13.7399 11.1837 14.3167 12.0231 14.6573C12.8625 14.9978 13.7861 15.0869 14.6772 14.9133C15.5683 14.7396 16.3868 14.3111 17.0292 13.6818C17.6717 13.0524 18.1092 12.2506 18.2864 11.3778C18.4637 10.5049 18.3727 9.60011 18.0251 8.77786C17.6774 7.95561 17.0886 7.25282 16.3332 6.75835C15.5778 6.26388 14.6897 5.99994 13.7812 5.9999C13.1779 5.99988 12.5805 6.11626 12.0231 6.34241C11.4658 6.56855 10.9593 6.90002 10.5327 7.3179C10.1061 7.73578 9.76776 8.23187 9.5369 8.77786C9.30605 9.32385 9.18724 9.90903 9.18726 10.5ZM6.12496 35.9998H42.875V29.9999L32.1562 12.0005L19.9061 27.0004H16.8436L6.12496 17.9999V35.9998Z" fill="#707070"/>
</svg>
