<svg width="24" height="16" viewBox="0 0 24 16" fill="none" xmlns="http://www.w3.org/2000/svg">
<path d="M11.9843 15.9867C9.32308 15.9867 6.66192 16.0209 4.00075 15.9753C2.33452 15.9638 0.860086 14.9474 0.320659 13.4512C0.104889 12.9372 -0.00299681 12.3776 0.00899044 11.818C-0.00299681 10.3332 -0.00299681 8.84849 0.00899044 7.36375C0.00899044 7.13533 0.068926 6.90691 0.176811 6.68991C1.01592 4.96533 1.86701 3.24074 2.71811 1.51616C3.1017 0.59105 4.04869 -0.0142764 5.09159 0.00856582C9.67072 -0.00285527 14.2379 -0.00285527 18.817 0.00856582C19.8599 -0.0142764 20.8069 0.568203 21.2024 1.49331C22.0775 3.2179 22.9526 4.94249 23.8157 6.6785C23.9236 6.90692 23.9835 7.14675 23.9835 7.39801C23.9955 8.84849 23.9955 10.3104 23.9955 11.7609C24.0674 13.257 23.2762 14.6732 21.9337 15.4613C21.2864 15.8382 20.5431 16.0209 19.788 15.9981C17.1627 15.9867 14.5735 15.9867 11.9843 15.9867ZM2.14272 6.39297H7.05749C7.525 6.34729 7.93256 6.66706 7.98051 7.11249C8.1843 7.96907 8.63981 8.75713 9.28712 9.38529C10.5937 10.5274 12.5357 10.7101 14.058 9.83071C15.029 9.19113 15.6883 8.22033 15.9161 7.11249C15.952 6.66706 16.3596 6.34727 16.8271 6.38154H21.7898C21.7539 6.29017 21.7299 6.23307 21.6939 6.17597C21.0466 4.85112 20.3873 3.53769 19.74 2.21285C19.5962 1.85879 19.2246 1.61895 18.829 1.64179C14.2738 1.64179 9.71866 1.64179 5.16351 1.64179C4.75594 1.61895 4.37235 1.85879 4.2285 2.22426C3.58119 3.54911 2.90991 4.85112 2.23862 6.17597C2.21465 6.23307 2.19067 6.3016 2.14272 6.39297ZM1.66323 8.03759C1.65124 8.06043 1.65124 8.08328 1.63926 8.11755C1.63926 9.41955 1.61528 10.7216 1.65124 12.0236C1.63926 13.3256 2.74208 14.3877 4.10863 14.3991C6.64993 14.4106 9.19122 14.3991 11.7205 14.3991C14.4776 14.3991 17.2227 14.3992 19.9797 14.3877C21.2264 14.3192 22.2094 13.3598 22.2693 12.172C22.3053 10.8129 22.2813 9.46524 22.2933 8.10613C22.2933 8.08329 22.2813 8.06043 22.2693 8.03759C22.2453 8.02617 22.2094 8.02618 22.1854 8.02618C20.6271 8.02618 19.0687 8.02618 17.5104 8.02618C17.4265 8.04902 17.3545 8.10613 17.3066 8.17466C17.1747 8.42592 17.0788 8.68861 16.947 8.92845C15.9281 11.2013 13.3388 12.4461 10.8215 11.8979C8.84359 11.4868 7.24929 10.082 6.6739 8.22033C6.61397 8.06044 6.55403 8.00333 6.37422 8.00333C4.87581 8.01475 3.37741 8.00333 1.89099 8.00333C1.80708 8.02617 1.73515 8.03759 1.66323 8.03759Z" fill="#323232"/>
</svg>
