<svg width="40" height="38" viewBox="0 0 40 38" fill="none" xmlns="http://www.w3.org/2000/svg">
<path d="M37.6999 3.87839C38.2 4.12926 38.7002 4.32996 39.1253 4.61846C39.963 5.20801 40.1756 5.94809 39.863 6.92649C39.2128 8.93347 38.5501 10.9405 37.8875 12.9474C37.7249 13.4492 37.3498 13.675 36.9372 13.537C36.4996 13.399 36.3245 12.9976 36.4746 12.4708C36.4996 12.3955 36.5246 12.3203 36.5496 12.245C37.1623 10.376 37.7874 8.49444 38.4001 6.62544C38.6001 6.01081 37.975 5.29582 37.3498 5.4338C37.2248 5.45889 37.0998 5.68467 37.0497 5.84774C36.012 8.79549 34.9992 11.7558 33.9739 14.7161C32.411 19.2443 30.8481 23.76 29.2727 28.2883C29.1976 28.5141 29.0476 28.7399 28.8726 28.8904C27.6722 29.9566 26.4469 31.0103 25.2466 32.0765C25.0215 32.2772 24.834 32.5406 24.7215 32.8165C24.0338 34.4598 22.8585 35.5761 21.158 36.103C19.6201 36.5796 18.8449 36.0403 18.6824 34.3343C18.4323 34.6354 18.2572 34.9364 18.0072 35.1497C17.5946 35.5009 17.182 35.8897 16.6943 36.0779C15.9691 36.3789 15.2189 35.9274 15.0439 35.1497C14.9314 34.6228 14.9064 34.0709 14.8688 33.519C14.8563 33.3057 14.8688 33.0925 14.8688 32.7789C14.5688 33.0047 14.3562 33.1678 14.1437 33.3434C13.1809 34.1211 12.2556 34.949 11.2554 35.6514C10.5802 36.1281 9.8175 36.542 9.0423 36.8305C7.66693 37.3197 6.39159 36.7678 5.6664 35.4758C5.60388 35.3629 5.54137 35.2625 5.51636 35.1998C4.12849 35.8521 2.76563 36.4918 1.40277 37.119C1.30274 37.1692 1.20271 37.2068 1.10269 37.2444C0.615057 37.4075 0.21495 37.257 0.0524073 36.8305C-0.0976325 36.4416 0.0774139 36.0653 0.540037 35.8521C1.5403 35.388 2.55307 34.9364 3.55334 34.4598C4.01596 34.234 4.61612 34.0709 4.86619 33.6946C5.10375 33.3434 4.94121 32.7287 4.96621 32.2395C5.09125 29.944 5.56637 27.774 7.06677 25.9426C7.65443 25.2276 8.42963 24.8639 9.34237 24.8012C10.9053 24.7008 11.9181 25.8172 11.543 27.3852C11.3179 28.3259 10.9303 29.2542 10.4552 30.1197C9.60495 31.6876 8.47965 33.0423 7.05427 34.1336C6.85421 34.2841 6.8167 34.4221 6.94174 34.6479C7.36685 35.4507 8.01702 35.7643 8.80473 35.3629C9.71747 34.8988 10.5552 34.2841 11.3929 33.6946C12.3432 33.0172 13.2434 32.2646 14.1937 31.5873C14.5062 31.3615 14.8939 31.236 15.2564 31.1357C15.8316 30.9852 16.2817 31.2611 16.3442 31.8507C16.4068 32.4026 16.3317 32.9671 16.3067 33.5315C16.2942 33.8953 16.2567 34.2591 16.2192 34.6228C16.2692 34.6479 16.3317 34.673 16.3817 34.6981C16.5693 34.5225 16.7693 34.372 16.9194 34.1838C17.307 33.6695 17.6446 33.1176 18.0572 32.6284C18.3198 32.3148 18.6699 32.0388 19.0324 31.8507C19.5201 31.5873 20.0202 31.788 20.1577 32.3148C20.2828 32.7664 20.2453 33.2681 20.2453 33.7448C20.2453 34.0834 20.1828 34.4096 20.1202 34.8988C20.5829 34.7608 20.933 34.6981 21.233 34.5476C22.2583 34.0333 22.9335 33.1803 23.3461 32.1266C23.4211 31.9259 23.3961 31.6625 23.3586 31.4367C23.1085 29.9441 22.821 28.4514 22.5834 26.9461C22.5334 26.5949 22.5459 26.181 22.6584 25.8423C25.4091 17.852 28.1849 9.87424 30.9481 1.8965C31.5108 0.265824 32.7986 -0.361358 34.424 0.203106C34.9367 0.378716 35.4618 0.554327 35.9744 0.742482C37.4123 1.25677 38.0125 2.33552 37.7124 3.82821C37.6874 3.8533 37.6999 3.90348 37.6999 3.87839ZM24.1338 26.0806C25.4467 26.5322 26.6845 26.9712 27.9598 27.4102C30.523 20.0346 33.0612 12.7216 35.5993 5.37108C34.2865 4.90697 33.0487 4.48048 31.7733 4.04146C29.2227 11.4171 26.697 18.7175 24.1338 26.0806ZM6.46661 32.5908C7.84198 31.4367 8.87975 30.0444 9.62995 28.4388C9.805 28.0625 9.96754 27.6486 10.0301 27.2472C10.0676 26.9712 10.0176 26.5322 9.83 26.4193C9.61745 26.2813 9.16733 26.2813 8.92976 26.4318C8.51716 26.6827 8.10455 27.0214 7.82947 27.4228C6.75419 28.9531 6.47911 30.7343 6.46661 32.5908ZM32.2735 2.5864C33.5613 3.03797 34.8116 3.48954 36.0495 3.92856C36.5121 3.01288 36.312 2.4735 35.4368 2.15991C34.9492 1.9843 34.4741 1.82123 33.9864 1.64562C33.0112 1.30694 32.5986 1.52019 32.2735 2.5864ZM24.1713 27.6862C24.3589 28.6646 24.5214 29.5677 24.709 30.5461C25.4717 29.8939 26.1718 29.2918 26.9345 28.6395C25.9718 28.3134 25.1091 28.0123 24.1713 27.6862Z" fill="white"/>
</svg>
